TITLE ""
FILE "1Q_t_1501-1509.mp3" MP3
  TRACK 01 AUDIO
    TITLE "1Q_t_1501-1509_01"
    INDEX 01 00:00:00
  TRACK 02 AUDIO
    TITLE "1Q_t_1501-1509_02"
    INDEX 01 00:01:61
  TRACK 03 AUDIO
    TITLE "1Q_t_1501-1509_03"
    INDEX 01 00:02:35
  TRACK 04 AUDIO
    TITLE "1Q_t_1501-1509_04"
    INDEX 01 00:03:42
  TRACK 05 AUDIO
    TITLE "1Q_t_1501-1509_05"
    INDEX 01 00:04:12
  TRACK 06 AUDIO
    TITLE "1Q_t_1501-1509_06"
    INDEX 01 00:05:10
  TRACK 07 AUDIO
    TITLE "1Q_t_1501-1509_07"
    INDEX 01 00:05:15
  TRACK 08 AUDIO
    TITLE "1Q_t_1501-1509_08"
    INDEX 01 00:06:68
  TRACK 09 AUDIO
    TITLE "1Q_t_1501-1509_09"
    INDEX 01 00:06:74
  TRACK 10 AUDIO
    TITLE "1Q_t_1501-1509_10"
    INDEX 01 00:11:39
  TRACK 11 AUDIO
    TITLE "1Q_t_1501-1509_11"
    INDEX 01 00:12:08
  TRACK 12 AUDIO
    TITLE "1Q_t_1501-1509_12"
    INDEX 01 00:13:17
  TRACK 13 AUDIO
    TITLE "1Q_t_1501-1509_13"
    INDEX 01 00:13:25
  TRACK 14 AUDIO
    TITLE "1Q_t_1501-1509_14"
    INDEX 01 00:14:57
  TRACK 15 AUDIO
    TITLE "1Q_t_1501-1509_15"
    INDEX 01 00:14:65
  TRACK 16 AUDIO
    TITLE "1Q_t_1501-1509_16"
    INDEX 01 00:19:06
  TRACK 17 AUDIO
    TITLE "1Q_t_1501-1509_17"
    INDEX 01 00:19:51
  TRACK 18 AUDIO
    TITLE "1Q_t_1501-1509_18"
    INDEX 01 00:20:68
  TRACK 19 AUDIO
    TITLE "1Q_t_1501-1509_19"
    INDEX 01 00:21:01
  TRACK 20 AUDIO
    TITLE "1Q_t_1501-1509_20"
    INDEX 01 00:22:39
  TRACK 21 AUDIO
    TITLE "1Q_t_1501-1509_21"
    INDEX 01 00:22:47
  TRACK 22 AUDIO
    TITLE "1Q_t_1501-1509_22"
    INDEX 01 00:26:59
  TRACK 23 AUDIO
    TITLE "1Q_t_1501-1509_23"
    INDEX 01 00:27:29
  TRACK 24 AUDIO
    TITLE "1Q_t_1501-1509_24"
    INDEX 01 00:28:46
  TRACK 25 AUDIO
    TITLE "1Q_t_1501-1509_25"
    INDEX 01 00:28:56
  TRACK 26 AUDIO
    TITLE "1Q_t_1501-1509_26"
    INDEX 01 00:31:07
  TRACK 27 AUDIO
    TITLE "1Q_t_1501-1509_27"
    INDEX 01 00:31:13
  TRACK 28 AUDIO
    TITLE "1Q_t_1501-1509_28"
    INDEX 01 00:36:45
  TRACK 29 AUDIO
    TITLE "1Q_t_1501-1509_29"
    INDEX 01 00:37:17
  TRACK 30 AUDIO
    TITLE "1Q_t_1501-1509_30"
    INDEX 01 00:38:27
  TRACK 31 AUDIO
    TITLE "1Q_t_1501-1509_31"
    INDEX 01 00:38:34
  TRACK 32 AUDIO
    TITLE "1Q_t_1501-1509_32"
    INDEX 01 00:44:08
  TRACK 33 AUDIO
    TITLE "1Q_t_1501-1509_33"
    INDEX 01 00:44:13
  TRACK 34 AUDIO
    TITLE "1Q_t_1501-1509_34"
    INDEX 01 00:48:17
  TRACK 35 AUDIO
    TITLE "1Q_t_1501-1509_35"
    INDEX 01 00:48:62
  TRACK 36 AUDIO
    TITLE "1Q_t_1501-1509_36"
    INDEX 01 00:49:58
  TRACK 37 AUDIO
    TITLE "1Q_t_1501-1509_37"
    INDEX 01 00:49:70
  TRACK 38 AUDIO
    TITLE "1Q_t_1501-1509_38"
    INDEX 01 00:51:16
  TRACK 39 AUDIO
    TITLE "1Q_t_1501-1509_39"
    INDEX 01 00:51:23
  TRACK 40 AUDIO
    TITLE "1Q_t_1501-1509_40"
    INDEX 01 00:55:23
  TRACK 41 AUDIO
    TITLE "1Q_t_1501-1509_41"
    INDEX 01 00:56:03
  TRACK 42 AUDIO
    TITLE "1Q_t_1501-1509_42"
    INDEX 01 00:57:00
  TRACK 43 AUDIO
    TITLE "1Q_t_1501-1509_43"
    INDEX 01 00:57:10
  TRACK 44 AUDIO
    TITLE "1Q_t_1501-1509_44"
    INDEX 01 00:58:57
  TRACK 45 AUDIO
    TITLE "1Q_t_1501-1509_45"
    INDEX 01 00:58:63
  TRACK 46 AUDIO
    TITLE "1Q_t_1501-1509_46"
    INDEX 01 01:04:30
  TRACK 47 AUDIO
    TITLE "1Q_t_1501-1509_47"
    INDEX 01 01:05:00
  TRACK 48 AUDIO
    TITLE "1Q_t_1501-1509_48"
    INDEX 01 01:06:09
  TRACK 49 AUDIO
    TITLE "1Q_t_1501-1509_49"
    INDEX 01 01:06:17
  TRACK 50 AUDIO
    TITLE "1Q_t_1501-1509_50"
    INDEX 01 01:09:35
  TRACK 51 AUDIO
    TITLE "1Q_t_1501-1509_51"
    INDEX 01 01:09:43
  TRACK 52 AUDIO
    TITLE "1Q_t_1501-1509_52"
    INDEX 01 01:15:32
  TRACK 53 AUDIO
    TITLE "1Q_t_1501-1509_53"
    INDEX 01 01:16:00
  TRACK 54 AUDIO
    TITLE "1Q_t_1501-1509_54"
    INDEX 01 01:17:15
  TRACK 55 AUDIO
    TITLE "1Q_t_1501-1509_55"
    INDEX 01 01:17:23
  TRACK 56 AUDIO
    TITLE "1Q_t_1501-1509_56"
    INDEX 01 01:19:45
  TRACK 57 AUDIO
    TITLE "1Q_t_1501-1509_57"
    INDEX 01 01:19:51
  TRACK 58 AUDIO
    TITLE "1Q_t_1501-1509_58"
    INDEX 01 01:23:39
